<?xml version="1.0" encoding="utf-8"?>
<!-- Generator: Adobe Illustrator 16.0.4, SVG Export Plug-In . SVG Version: 6.00 Build 0)  -->
<!DOCTYPE svg PUBLIC "-//W3C//DTD SVG 1.1//EN" "http://www.w3.org/Graphics/SVG/1.1/DTD/svg11.dtd">
<svg version="1.1" id="Layer_1" xmlns="http://www.w3.org/2000/svg" xmlns:xlink="http://www.w3.org/1999/xlink" x="0px" y="0px"
	 width="170px" height="130px" viewBox="0 0 170 130" enable-background="new 0 0 170 130" xml:space="preserve">
<g id="Layer_1_1_">
	<g id="fuvmz7_1_">
		<g>
			<path fill="#333333" d="M121.164,12.815c-2.419,5.35-4.693,10.846-7.12,16.188c6.76,3.244,12.905,8.068,16.039,15.214
				c1.063,2.428,1.979,5.349,1.798,8.621c-0.229,4.138-2.38,7.775-5.021,10.193c-2.696,2.468-6.453,4.039-11.316,4.046
				c-6.01,0.011-10.031-2.103-14.691-3.597c0.729-1.846,1.608-3.538,2.324-5.396c2.467,0.791,5.143,2.246,8.094,2.474
				c6.996,0.538,13.912-1.605,14.315-8.095c0.274-4.422-1.819-7.264-3.672-9.819c-2.582-3.56-6.168-6.34-10.418-8.243
				c-7.406,5.359-14.712,10.819-21.959,16.338c1.919,1.253,3.958,2.385,5.995,3.521c1.018-2.168,2.027-4.297,2.998-6.595
				c0.314-0.747,0.484-1.671,0.898-2.249c0.469-0.649,2.075-1.575,2.774-2.098c2.782-2.085,5.567-4.26,8.319-6.222
				c-6.826,15.363-13.469,31.345-20.461,46.995c-1.938,4.336-4.035,8.923-6.072,13.563c-0.371,0.846-0.489,1.97-1.348,1.798
				c-0.703-0.283-0.826-1.324-1.125-2.022c-4.592-10.726-9.695-21.516-14.241-32.451c2.083-0.865,4.128-1.768,6.296-2.549
				c3.091,7.053,6.169,14.117,9.219,21.209c3.467-7.698,6.771-15.564,10.192-23.31c-6.873-3.599-13.035-7.984-19.038-12.516
				c-0.826-0.623-1.843-1.187-2.398-2.099c1.617-0.555,3.232-1.03,4.947-1.573c0.549-0.174,1.196-0.529,1.648-0.525
				c0.954,0.008,2.131,1.153,2.849,1.649c0.976,0.675,1.805,1.144,2.623,1.798c7.877-5.064,15.285-10.6,22.334-16.489
				c2.115-5.057,4.514-10.433,6.746-15.589c0.315-0.729,0.811-1.51,0.975-2.174c0.02-0.083-0.518-0.16,0.075-0.15
				c-0.546-2.102-0.984-4.312-1.574-6.371c0.205-0.519,0.59-0.857,0.974-1.199c2.987,0,6.258,0,9.444,0c1.062,0,2.3-0.212,3.073,0
				c1.254,0.345,1.488,2.38,1.574,4.198c0.031,0.656,0.086,1.482,0,1.874c-0.188,0.848-1.014,1.182-1.498,1.648
				C124.212,12.815,122.689,12.815,121.164,12.815z"/>
			<path fill="#333333" d="M53.936,7.195c-0.538,2.136-1.008,4.337-1.574,6.445c0.239-0.002,0.179,0.243,0.149,0.149
				c0.731,2.352,2.067,4.764,3.148,7.271c1.075,2.495,2.06,5.022,3.148,7.345c3.958,0.209,6.959,1.038,9.731,2.823
				c2.138,1.376,5.249,4.421,3.685,7.97c-1.181,2.681-3.891,4.005-6.295,5.621c1.475,3.396,2.965,6.778,4.422,10.193
				c2.08-0.941,3.894-2.15,5.846-3.222c2,1.271,3.826,2.719,5.771,4.046c-5.334,3.65-11.977,6.145-18.586,8.695
				c-3.311,1.276-6.897,2.472-11.168,2.472c-4.37,0-7.755-0.98-10.568-3.074c-2.611-1.938-4.659-4.666-5.621-8.019
				c-1.021-3.555-0.292-7.977,1.124-11.319c2.656-6.272,7.589-10.831,13.266-14.015c0.737,1.812,1.562,3.535,2.323,5.321
				c-3.009,2.058-5.528,4.42-7.719,7.419c-1.633,2.235-3.416,4.972-3.223,8.994c0.233,4.864,3.959,7.229,8.618,8.021
				c4.923,0.834,9.971-0.468,13.791-2.249c-6.255-14.877-12.901-29.368-19.185-44.217c-1.575,0-3.148,0-4.723,0
				c-0.323-0.48-1.218-0.765-1.424-1.574c-0.293-1.146,0.131-4.252,0.448-4.946c0.261-0.568,0.678-0.844,1.05-1.198
				c2.799,0,6.337,0,9.443,0C51.753,6.146,53.429,5.832,53.936,7.195z M66.753,37.024c0.351-2.572-4.09-3.227-5.621-3.672
				c-0.084,0.016-0.117,0.083-0.15,0.149c0.96,2.088,1.877,4.218,2.773,6.371C64.734,38.991,66.553,38.48,66.753,37.024z"/>
			<path fill="#333333" d="M58.658,49.316c-1.076,0.612-2.088,1.292-3.148,1.948c-0.977,0.604-1.961,0.974-3.373,1.499
				c0.423-1.861,1.025-4.411,1.425-6.596c0.902-0.622,1.91-1.137,2.848-1.723C57.339,46.359,57.911,47.689,58.658,49.316z"/>
		</g>
	</g>
</g>
<g id="Layer_2">
</g>
<g id="Layer_3">
</g>
<g>
	<path fill="#333333" d="M6.741,124.817v-13.025H3.92v-1.016h6.902v1.016H8.07v13.025H6.741z"/>
	<path fill="#333333" d="M13.692,124.817v-14.042h1.33v6.224h4.421v-6.224h1.33v14.042h-1.33v-6.843h-4.421v6.843H13.692z"/>
	<path fill="#333333" d="M24.946,124.817v-14.042h5.073v1.016h-3.744v5.259h3.066v0.982h-3.066v5.793h3.785v0.991L24.946,124.817
		L24.946,124.817z"/>
	<path fill="#333333" d="M38.747,124.817l0.364-14.042h1.295l2.795,12.187l2.812-12.187h1.329l0.348,14.042h-1.102l-0.271-11.195
		l-2.684,11.195h-0.848l-2.652-11.17l-0.271,11.17H38.747z"/>
	<path fill="#333333" d="M51.745,124.817v-14.042h5.073v1.016h-3.744v5.259h3.066v0.982h-3.066v5.793h3.786v0.991L51.745,124.817
		L51.745,124.817z"/>
	<path fill="#333333" d="M63.397,124.987c-1.112,0-1.955-0.335-2.528-1.004c-0.573-0.669-0.904-1.604-0.995-2.808l1.177-0.34
		c0.039,0.373,0.089,0.702,0.148,0.987c0.059,0.285,0.146,0.563,0.262,0.838s0.257,0.498,0.423,0.674
		c0.167,0.175,0.379,0.315,0.635,0.423c0.257,0.107,0.553,0.161,0.886,0.161c1.32,0,1.981-0.678,1.981-2.033
		c0-0.299-0.038-0.578-0.114-0.842c-0.076-0.263-0.197-0.52-0.364-0.771c-0.166-0.252-0.341-0.479-0.525-0.684
		c-0.183-0.203-0.422-0.447-0.715-0.735l-2.49-2.39c-0.847-0.812-1.271-1.755-1.271-2.829c0-0.953,0.283-1.693,0.851-2.218
		c0.568-0.523,1.336-0.791,2.308-0.795c0.022,0,0.042,0,0.059,0c1.022,0,1.804,0.276,2.346,0.83
		c0.553,0.565,0.875,1.477,0.965,2.736l-1.117,0.288c-0.079-0.948-0.282-1.66-0.61-2.135c-0.315-0.45-0.824-0.677-1.524-0.677
		c-0.033,0-0.068,0-0.102,0c-0.615,0.018-1.1,0.178-1.452,0.482c-0.354,0.305-0.53,0.766-0.53,1.381
		c0,0.384,0.075,0.732,0.225,1.046c0.149,0.312,0.405,0.645,0.766,0.995l2.474,2.346c0.638,0.609,1.141,1.227,1.507,1.851
		c0.366,0.624,0.551,1.3,0.551,2.027c0,1.022-0.295,1.811-0.885,2.362C65.149,124.708,64.367,124.987,63.397,124.987z"/>
	<path fill="#333333" d="M73.108,124.987c-1.112,0-1.956-0.335-2.528-1.004c-0.572-0.669-0.904-1.604-0.995-2.808l1.177-0.34
		c0.039,0.373,0.089,0.702,0.148,0.987c0.059,0.285,0.146,0.563,0.262,0.838c0.116,0.274,0.257,0.498,0.423,0.674
		c0.167,0.175,0.379,0.315,0.635,0.423c0.257,0.107,0.553,0.161,0.886,0.161c1.32,0,1.981-0.678,1.981-2.033
		c0-0.299-0.038-0.578-0.114-0.842c-0.076-0.263-0.198-0.52-0.364-0.771c-0.167-0.252-0.341-0.479-0.525-0.684
		c-0.184-0.203-0.422-0.447-0.715-0.735l-2.49-2.39c-0.847-0.812-1.271-1.755-1.271-2.829c0-0.953,0.284-1.693,0.851-2.218
		c0.568-0.523,1.336-0.791,2.308-0.795c0.022,0,0.042,0,0.059,0c1.022,0,1.804,0.276,2.346,0.83
		c0.553,0.565,0.875,1.477,0.965,2.736l-1.117,0.288c-0.079-0.948-0.282-1.66-0.61-2.135c-0.315-0.45-0.824-0.677-1.524-0.677
		c-0.033,0-0.068,0-0.102,0c-0.615,0.018-1.1,0.178-1.452,0.482c-0.354,0.305-0.53,0.766-0.53,1.381
		c0,0.384,0.075,0.732,0.225,1.046c0.149,0.312,0.405,0.645,0.766,0.995l2.474,2.346c0.637,0.609,1.141,1.227,1.507,1.851
		c0.366,0.624,0.551,1.3,0.551,2.027c0,1.022-0.295,1.811-0.885,2.362C74.86,124.71,74.08,124.987,73.108,124.987z"/>
	<path fill="#333333" d="M79.068,124.817l2.963-14.042h1.391l2.98,14.042h-1.295l-0.694-3.752h-3.354l-0.711,3.752H79.068z
		 M81.245,120.1h2.989l-1.498-7.572L81.245,120.1z"/>
	<path fill="#333333" d="M93.007,125.003c-0.649,0-1.203-0.104-1.66-0.312c-0.456-0.208-0.815-0.516-1.075-0.918
		c-0.26-0.404-0.445-0.869-0.559-1.395c-0.111-0.524-0.169-1.138-0.169-1.838v-5.488c0-0.712,0.054-1.325,0.165-1.842
		c0.109-0.517,0.294-0.975,0.554-1.376c0.261-0.399,0.625-0.702,1.097-0.906c0.472-0.202,1.049-0.305,1.731-0.305
		c1.214,0,2.084,0.337,2.608,1.012c0.525,0.675,0.787,1.685,0.787,3.027v0.5h-1.244v-0.5c0-1.049-0.149-1.811-0.449-2.282
		c-0.299-0.471-0.859-0.707-1.686-0.707c-0.379,0-0.703,0.055-0.974,0.165c-0.271,0.111-0.487,0.253-0.647,0.433
		c-0.162,0.178-0.289,0.412-0.381,0.703c-0.094,0.292-0.156,0.586-0.188,0.885c-0.032,0.299-0.047,0.654-0.047,1.066v5.768
		c0,0.542,0.031,1.002,0.097,1.377s0.181,0.709,0.345,0.999c0.162,0.29,0.396,0.507,0.697,0.646
		c0.303,0.143,0.676,0.212,1.122,0.212c0.824,0,1.396-0.269,1.716-0.805c0.318-0.536,0.479-1.356,0.479-2.464v-1.66H93.26v-0.974
		h3.286v6.792h-0.847l-0.16-1.592C95.15,124.411,94.307,125.003,93.007,125.003z"/>
	<path fill="#333333" d="M100.568,124.817v-14.042h5.072v1.016h-3.742v5.259h3.064v0.982h-3.064v5.793h3.785v0.991L100.568,124.817
		L100.568,124.817z"/>
	<path fill="#333333" d="M116.258,124.817l-2.389-14.033l1.135-0.008l1.846,11.398l2.125-11.187h1.094l2.16,11.205l1.719-11.417
		h1.117l-2.27,14.042h-1.034l-2.227-11.594l-2.21,11.594L116.258,124.817L116.258,124.817z"/>
	<path fill="#333333" d="M128.68,124.817v-14.042h1.305v14.042H128.68z"/>
	<path fill="#333333" d="M135.716,124.817v-13.025h-2.819v-1.016h6.901v1.016h-2.752v13.025H135.716z"/>
	<path fill="#333333" d="M142.668,124.817v-14.042h1.33v6.224h4.421v-6.224h1.329v14.042h-1.329v-6.843h-4.421v6.843H142.668z"/>
	<path fill="#333333" d="M153.98,124.817v-14.042h1.305v14.042H153.98z"/>
	<path fill="#333333" d="M159.5,124.817v-14.042h0.975l4.471,10.898v-10.898h1.135v14.042h-0.932l-4.506-11.027v11.027H159.5z"/>
</g>
</svg>
