<?xml version="1.0" encoding="utf-8"?>
<!-- Generator: Adobe Illustrator 16.0.4, SVG Export Plug-In . SVG Version: 6.00 Build 0)  -->
<!DOCTYPE svg PUBLIC "-//W3C//DTD SVG 1.1//EN" "http://www.w3.org/Graphics/SVG/1.1/DTD/svg11.dtd">
<svg version="1.1" id="Layer_1" xmlns="http://www.w3.org/2000/svg" xmlns:xlink="http://www.w3.org/1999/xlink" x="0px" y="0px"
	 width="200px" height="196.083px" viewBox="0 0 200 196.083" enable-background="new 0 0 200 196.083" xml:space="preserve">
<g id="Layer_1_1_">
	<g id="fuvmz7_1_">
		<g>
			<path fill="#333333" d="M177.708,16.216c-5.021,11.105-9.742,22.512-14.778,33.603c14.032,6.733,26.787,16.746,33.291,31.578
				c2.207,5.037,4.107,11.1,3.732,17.891c-0.475,8.586-4.939,16.137-10.424,21.156c-5.596,5.123-13.393,8.383-23.488,8.398
				c-12.471,0.023-20.82-4.365-30.491-7.465c1.513-3.828,3.337-7.344,4.822-11.201c5.121,1.642,10.673,4.662,16.801,5.134
				c14.519,1.118,28.875-3.333,29.712-16.801c0.571-9.179-3.775-15.077-7.623-20.379c-5.357-7.387-12.801-13.158-21.623-17.111
				c-15.371,11.125-30.533,22.459-45.578,33.912c3.984,2.601,8.217,4.952,12.444,7.312c2.111-4.5,4.209-8.92,6.224-13.688
				c0.652-1.551,1.004-3.469,1.865-4.668c0.971-1.35,4.307-3.269,5.756-4.354c5.774-4.329,11.557-8.842,17.269-12.911
				c-14.17,31.884-27.957,65.057-42.468,97.538c-4.021,9-8.375,18.521-12.601,28.155c-0.771,1.756-1.018,4.089-2.8,3.733
				c-1.456-0.588-1.711-2.748-2.333-4.199c-9.531-22.262-20.123-44.659-29.557-67.357c4.325-1.795,8.569-3.668,13.067-5.289
				c6.416,14.637,12.805,29.301,19.135,44.022c7.197-15.979,14.051-32.306,21.155-48.38c-14.265-7.471-27.052-16.572-39.513-25.978
				c-1.714-1.294-3.825-2.461-4.977-4.354c3.357-1.153,6.708-2.14,10.267-3.268c1.141-0.36,2.485-1.096,3.423-1.089
				c1.98,0.016,4.424,2.395,5.912,3.423c2.026,1.402,3.746,2.375,5.444,3.733c16.348-10.511,31.721-22,46.356-34.224
				c4.387-10.496,9.367-21.654,14-32.356c0.655-1.512,1.682-3.135,2.023-4.512c0.041-0.173-1.076-0.331,0.154-0.312
				c-1.133-4.363-2.041-8.95-3.266-13.222c0.427-1.076,1.225-1.782,2.021-2.489c6.201,0,12.988,0,19.601,0
				c2.202,0,4.774-0.44,6.378,0c2.604,0.714,3.089,4.94,3.268,8.712c0.064,1.363,0.18,3.078,0,3.889
				c-0.389,1.76-2.104,2.453-3.11,3.423C184.033,16.216,180.871,16.216,177.708,16.216z"/>
			<path fill="#333333" d="M38.169,4.549c-1.116,4.433-2.093,9.004-3.268,13.378c0.497-0.001,0.372,0.507,0.311,0.312
				c1.519,4.879,4.292,9.888,6.534,15.089c2.231,5.18,4.276,10.426,6.534,15.245c8.215,0.434,14.444,2.155,20.197,5.859
				c4.438,2.857,10.894,9.177,7.649,16.543c-2.452,5.564-8.077,8.312-13.067,11.666c3.062,7.049,6.154,14.069,9.179,21.156
				c4.317-1.955,8.083-4.465,12.134-6.688c4.153,2.64,7.942,5.644,11.978,8.399c-11.072,7.576-24.858,12.752-38.579,18.046
				c-6.871,2.651-14.313,5.134-23.178,5.134c-9.07,0-16.096-2.036-21.935-6.379c-5.419-4.027-9.67-9.684-11.667-16.645
				c-2.117-7.379-0.604-16.554,2.334-23.491c5.513-13.021,15.752-22.479,27.534-29.09c1.53,3.761,3.242,7.337,4.823,11.045
				c-6.246,4.271-11.475,9.175-16.022,15.4c-3.39,4.64-7.09,10.319-6.689,18.667c0.484,10.096,8.219,15.006,17.889,16.646
				c10.216,1.732,20.694-0.971,28.624-4.668C46.5,79.292,32.704,49.216,19.661,18.394c-3.268,0-6.534,0-9.801,0
				c-0.671-0.997-2.529-1.589-2.956-3.267C6.296,12.75,7.176,6.302,7.834,4.861C8.375,3.68,9.24,3.108,10.012,2.372
				c5.811,0,13.153,0,19.601,0C33.638,2.372,37.117,1.721,38.169,4.549z M64.771,66.462c0.728-5.34-8.491-6.695-11.667-7.622
				c-0.175,0.033-0.242,0.172-0.311,0.311c1.992,4.334,3.897,8.754,5.755,13.223C60.582,70.548,64.357,69.486,64.771,66.462z"/>
			<path fill="#333333" d="M47.969,91.975c-2.232,1.274-4.334,2.682-6.534,4.045c-2.026,1.255-4.07,2.02-7,3.111
				c0.878-3.864,2.129-9.154,2.956-13.69c1.873-1.29,3.966-2.36,5.911-3.577C45.233,85.838,46.419,88.599,47.969,91.975z"/>
		</g>
	</g>
</g>
<g id="Layer_2">
</g>
<g id="Layer_3">
</g>
</svg>
